# xmcd CD database file
#
# Track frame offsets:
#	150
#	8029
#	26174
#	38137
#	53954
#	77832
#	92613
#	115050
#	131098
#	142992
#	161398
#	168732
#	174686
#	182581
#	195769
#	207758
#	232959
#	257480
#	279880
#
# Disc length: 4440 seconds
#
# Revision: 2
# Processed by: cddbd v1.5.2PL0 Copyright (c) Steve Scherf et al.
# Submitted via: CDex 1.70beta2
#
DISCID=f1115613
DTITLE=SEGA - LET THE WINDS BLOW　SIDE-B
DYEAR=2003
DGENRE=Game
TTITLE0=LET THE WINDS BLOW - Remix Version for OPENING - /Krzysztof Przygudzki
TTITLE1=Tune - Option -
TTITLE2=Advices - Tutlial -
TTITLE3=Morgue PART2 -モルグ02-
TTITLE4=Tower of "Caelum" - カエルムの塔 -
TTITLE5=Molae Venti - モーラ・ヴェンティのフォトン整流所 -
TTITLE6=Cyber - サイバー -
TTITLE7=Nebula Montana PART2 - ネピュラ高地02 -
TTITLE8=Lupus Silva PART2 - ルプスの森02 -
TTITLE9=Via Tubus - ヴィア・タバス -
TTITLE10=Ride On - 観戦 -
TTITLE11=Scenario：Great
TTITLE12=Scenario：Smile
TTITLE13=Scenario：Ease
TTITLE14=Scenario：Navigation
TTITLE15="IDOLA" The Strange Fruits
TTITLE16=World With Me～Phantasy Star Online episodeII ENDING THEME～
TTITLE17=The Whole New World～Phantasy Star Online OPENING THEME～
TTITLE18=cd
EXTD=YEAR: 2003
EXTT0=
EXTT1=
EXTT2=
EXTT3=
EXTT4=
EXTT5=
EXTT6=
EXTT7=
EXTT8=
EXTT9=
EXTT10=
EXTT11=
EXTT12=
EXTT13=
EXTT14=
EXTT15=
EXTT16=
EXTT17=
EXTT18=
PLAYORDER=
